<svg width="48" height="48" viewBox="0 0 48 48" fill="none" xmlns="http://www.w3.org/2000/svg">
  <defs>
    <linearGradient id="grad" x1="8" y1="6" x2="42" y2="40" gradientUnits="userSpaceOnUse">
      <stop offset="0" stop-color="#5C6CFF"/>
      <stop offset="1" stop-color="#8F9BFF"/>
    </linearGradient>
    <linearGradient id="glow" x1="12" y1="10" x2="38" y2="36" gradientUnits="userSpaceOnUse">
      <stop offset="0" stop-color="rgba(255,255,255,0.28)"/>
      <stop offset="1" stop-color="rgba(255,255,255,0.04)"/>
    </linearGradient>
  </defs>
  <rect x="2" y="2" width="44" height="44" rx="16" fill="url(#grad)"/>
  <rect x="5" y="5" width="38" height="38" rx="14" fill="url(#glow)"/>
  <path d="M24 25.2c4.32 0 7.82-3.5 7.82-7.82 0-4.32-3.5-7.82-7.82-7.82s-7.82 3.5-7.82 7.82c0 4.32 3.5 7.82 7.82 7.82Z" stroke="white" stroke-width="2.2" stroke-linecap="round" stroke-linejoin="round"/>
  <path d="M15.1 33.3c0-4.7 3.96-8.52 8.9-8.52 4.94 0 8.9 3.82 8.9 8.52v1.18c0 2.28-1.84 4.12-4.12 4.12H19.2c-2.28 0-4.1-1.84-4.1-4.12v-1.18Z" stroke="white" stroke-width="2.2" stroke-linecap="round" stroke-linejoin="round"/>
  <path d="M33 18.5h4.24a3.76 3.76 0 0 1 0 7.52h-1.54l-2.7 2.7v-8.74c0-.82.66-1.48 1.48-1.48Z" fill="white" fill-opacity="0.88"/>
</svg>
